<svg width="33" height="33" viewBox="0 0 33 33" fill="none" xmlns="http://www.w3.org/2000/svg">
<path d="M22 30.25V24.9287C22.0516 24.2731 21.963 23.614 21.7401 22.9952C21.5173 22.3764 21.1653 21.8122 20.7075 21.34C25.025 20.8587 29.5625 19.2225 29.5625 11.715C29.5621 9.79524 28.8237 7.94912 27.5 6.55873C28.1268 4.87917 28.0825 3.02271 27.3762 1.37498C27.3762 1.37498 25.7538 0.893725 22 3.40998C18.8485 2.55586 15.5265 2.55586 12.375 3.40998C8.62125 0.893725 6.99875 1.37498 6.99875 1.37498C6.29252 3.02271 6.2482 4.87917 6.875 6.55873C5.54142 7.95944 4.80222 9.82224 4.8125 11.7562C4.8125 19.2087 9.35 20.845 13.6675 21.3812C13.2151 21.8487 12.8662 22.4062 12.6435 23.0174C12.4209 23.6286 12.3294 24.2798 12.375 24.9287V30.25M12.375 26.125C5.5 28.1875 5.5 22.6875 2.75 22L12.375 26.125Z" stroke="white" stroke-width="2" stroke-linecap="round" stroke-linejoin="round"/>
</svg>
