<svg width="33" height="33" viewBox="0 0 33 33" fill="none" xmlns="http://www.w3.org/2000/svg">
<path d="M22 11C24.188 11 26.2865 11.8692 27.8336 13.4164C29.3808 14.9635 30.25 17.062 30.25 19.25V28.875H24.75V19.25C24.75 18.5207 24.4603 17.8212 23.9445 17.3055C23.4288 16.7897 22.7293 16.5 22 16.5C21.2707 16.5 20.5712 16.7897 20.0555 17.3055C19.5397 17.8212 19.25 18.5207 19.25 19.25V28.875H13.75V19.25C13.75 17.062 14.6192 14.9635 16.1664 13.4164C17.7135 11.8692 19.812 11 22 11V11Z" stroke="white" stroke-width="2" stroke-linecap="round" stroke-linejoin="round"/>
<path d="M8.25 12.375H2.75V28.875H8.25V12.375Z" stroke="white" stroke-width="2" stroke-linecap="round" stroke-linejoin="round"/>
<path d="M5.5 8.25C7.01878 8.25 8.25 7.01878 8.25 5.5C8.25 3.98122 7.01878 2.75 5.5 2.75C3.98122 2.75 2.75 3.98122 2.75 5.5C2.75 7.01878 3.98122 8.25 5.5 8.25Z" stroke="white" stroke-width="2" stroke-linecap="round" stroke-linejoin="round"/>
</svg>
